G04 MADE WITH FRITZING*
G04 WWW.FRITZING.ORG*
G04 DOUBLE SIDED*
G04 HOLES PLATED*
G04 CONTOUR ON CENTER OF CONTOUR VECTOR*
%ASAXBY*%
%FSLAX23Y23*%
%MOIN*%
%OFA0B0*%
%SFA1.0B1.0*%
%ADD10C,0.075000*%
%ADD11C,0.078000*%
%ADD12C,0.075433*%
%ADD13C,0.060000*%
%ADD14C,0.066111*%
%ADD15R,0.078000X0.078000*%
%ADD16C,0.024000*%
%ADD17C,0.016000*%
%LNCOPPER0*%
G90*
G70*
G54D10*
X745Y100D03*
X489Y100D03*
X745Y277D03*
X489Y277D03*
X345Y100D03*
X89Y100D03*
X345Y277D03*
X89Y277D03*
X989Y377D03*
X1389Y377D03*
X2039Y1377D03*
X2039Y1277D03*
X2039Y1177D03*
G54D11*
X1164Y227D03*
X1264Y227D03*
X2039Y577D03*
X2039Y477D03*
X2039Y377D03*
X2039Y277D03*
X2039Y177D03*
X2039Y77D03*
G54D12*
X1239Y627D03*
X689Y727D03*
X620Y277D03*
G54D13*
X89Y1427D03*
X189Y1427D03*
X289Y1427D03*
X389Y1427D03*
X489Y1427D03*
X589Y1427D03*
X689Y1427D03*
X789Y1427D03*
X889Y1427D03*
X989Y1427D03*
X1089Y1427D03*
X1189Y1427D03*
X1289Y1427D03*
X1389Y1427D03*
X1489Y1427D03*
X1589Y1427D03*
X1689Y1427D03*
X1789Y1427D03*
X1789Y527D03*
X1689Y527D03*
X1589Y527D03*
X1489Y527D03*
X1389Y527D03*
X1289Y527D03*
X1189Y527D03*
X1089Y527D03*
X989Y527D03*
X889Y527D03*
X789Y527D03*
X689Y527D03*
X589Y527D03*
X489Y527D03*
X389Y527D03*
X289Y527D03*
X189Y527D03*
X89Y527D03*
G54D14*
X1514Y77D03*
X1514Y177D03*
X1514Y377D03*
X1514Y277D03*
G54D10*
X1389Y77D03*
X989Y77D03*
G54D15*
X1164Y227D03*
G54D16*
X2019Y1357D02*
X1938Y1276D01*
D02*
X1938Y1276D02*
X1938Y527D01*
D02*
X1938Y527D02*
X2012Y490D01*
D02*
X1709Y512D02*
X2014Y295D01*
D02*
X607Y509D02*
X665Y452D01*
D02*
X665Y452D02*
X1068Y453D01*
D02*
X1240Y302D02*
X1255Y256D01*
D02*
X1068Y453D02*
X1240Y302D01*
G54D17*
D02*
X1414Y177D02*
X1414Y277D01*
D02*
X1414Y277D02*
X1140Y453D01*
D02*
X1498Y93D02*
X1414Y177D01*
D02*
X1140Y453D02*
X1140Y573D01*
D02*
X1140Y573D02*
X1218Y616D01*
G54D16*
D02*
X1540Y367D02*
X2011Y188D01*
G54D17*
D02*
X573Y1415D02*
X540Y1389D01*
D02*
X540Y1389D02*
X540Y477D01*
X540Y477D02*
X639Y376D01*
D02*
X639Y376D02*
X838Y378D01*
D02*
X838Y378D02*
X1164Y78D01*
D02*
X1164Y78D02*
X1366Y77D01*
G54D16*
D02*
X373Y100D02*
X460Y100D01*
D02*
X960Y80D02*
X773Y97D01*
D02*
X1537Y262D02*
X1738Y129D01*
D02*
X1738Y129D02*
X2089Y77D01*
D02*
X2089Y77D02*
X2101Y100D01*
D02*
X2115Y126D02*
X2115Y1127D01*
D02*
X2115Y1127D02*
X2115Y1428D01*
D02*
X2039Y1478D02*
X1938Y1478D01*
D02*
X2115Y1428D02*
X2039Y1478D01*
D02*
X1540Y1077D02*
X1540Y727D01*
D02*
X1938Y1478D02*
X1540Y1077D01*
D02*
X1540Y727D02*
X718Y727D01*
D02*
X630Y250D02*
X638Y228D01*
D02*
X638Y228D02*
X963Y88D01*
D02*
X1769Y543D02*
X1540Y727D01*
D02*
X2063Y1161D02*
X2115Y1127D01*
G04 End of Copper0*
M02*