; NON-PLATED HOLES START AT T1
; THROUGH (PLATED) HOLES START AT T100
M48
INCH
T1C0.086614
T100C0.032778
T101C0.028000
T102C0.035000
T103C0.038000
T104C0.035433
%
T1
X020388Y007020
X000868Y003895
T100
X015138Y002770
X015138Y001770
X015138Y000770
X015138Y003770
T101
X016887Y005270
X007888Y014269
X005888Y005270
X009888Y014269
X013888Y005270
X015887Y005270
X003889Y014269
X015887Y014269
X008888Y005270
X010888Y014269
X013888Y014269
X009888Y005270
X014887Y014269
X012888Y005270
X006888Y014269
X002889Y014269
X017887Y014269
X011888Y014269
X004888Y014269
X002889Y005270
X001889Y005270
X008888Y014269
X004888Y005270
X005888Y014269
X007888Y005270
X014887Y005270
X012888Y014269
X010888Y005270
X017887Y005270
X001889Y014269
X011888Y005270
X006888Y005270
X000889Y005270
X003889Y005270
X000889Y014269
X016887Y014269
T102
X000888Y002770
X009888Y000770
X013888Y003770
X003447Y000998
X013888Y000770
X020388Y011770
X007447Y002770
X000888Y000998
X003447Y002770
X020388Y013770
X009888Y003770
X007447Y000998
X020388Y012770
X004888Y002770
X004888Y000998
T103
X020388Y001770
X012638Y002270
X020388Y002770
X011638Y002270
X020388Y004770
X020388Y000770
X020388Y003770
X020388Y005770
T104
X006200Y002770
X006888Y007270
X012389Y006270
T00
M30
