G04 MADE WITH FRITZING*
G04 WWW.FRITZING.ORG*
G04 DOUBLE SIDED*
G04 HOLES PLATED*
G04 CONTOUR ON CENTER OF CONTOUR VECTOR*
%ASAXBY*%
%FSLAX23Y23*%
%MOIN*%
%OFA0B0*%
%SFA1.0B1.0*%
%ADD10C,0.075000*%
%ADD11C,0.078000*%
%ADD12C,0.075433*%
%ADD13C,0.060000*%
%ADD14C,0.066111*%
%ADD15R,0.078000X0.078000*%
%ADD16C,0.016000*%
%ADD17C,0.024000*%
%ADD18C,0.012000*%
%LNCOPPER1*%
G90*
G70*
G54D10*
X745Y100D03*
X489Y100D03*
X745Y277D03*
X489Y277D03*
X345Y100D03*
X89Y100D03*
X345Y277D03*
X89Y277D03*
X989Y377D03*
X1389Y377D03*
X2039Y1377D03*
X2039Y1277D03*
X2039Y1177D03*
G54D11*
X1164Y227D03*
X1264Y227D03*
X2039Y577D03*
X2039Y477D03*
X2039Y377D03*
X2039Y277D03*
X2039Y177D03*
X2039Y77D03*
G54D12*
X1239Y627D03*
X689Y727D03*
X620Y277D03*
G54D13*
X89Y1427D03*
X189Y1427D03*
X289Y1427D03*
X389Y1427D03*
X489Y1427D03*
X589Y1427D03*
X689Y1427D03*
X789Y1427D03*
X889Y1427D03*
X989Y1427D03*
X1089Y1427D03*
X1189Y1427D03*
X1289Y1427D03*
X1389Y1427D03*
X1489Y1427D03*
X1589Y1427D03*
X1689Y1427D03*
X1789Y1427D03*
X1789Y527D03*
X1689Y527D03*
X1589Y527D03*
X1489Y527D03*
X1389Y527D03*
X1289Y527D03*
X1189Y527D03*
X1089Y527D03*
X989Y527D03*
X889Y527D03*
X789Y527D03*
X689Y527D03*
X589Y527D03*
X489Y527D03*
X389Y527D03*
X289Y527D03*
X189Y527D03*
X89Y527D03*
G54D14*
X1514Y77D03*
X1514Y177D03*
X1514Y377D03*
X1514Y277D03*
G54D10*
X1389Y77D03*
X989Y77D03*
G54D15*
X1164Y227D03*
G54D16*
X896Y1409D02*
X1139Y826D01*
G54D17*
D02*
X731Y302D02*
X688Y378D01*
G54D16*
D02*
X1140Y453D02*
X1009Y387D01*
D02*
X1139Y826D02*
X1140Y453D01*
G54D17*
D02*
X369Y262D02*
X463Y202D01*
D02*
X688Y378D02*
X689Y502D01*
D02*
X813Y202D02*
X883Y503D01*
D02*
X463Y202D02*
X813Y202D01*
D02*
X1863Y527D02*
X1840Y452D01*
D02*
X1863Y1127D02*
X1863Y527D01*
D02*
X2017Y1259D02*
X1863Y1127D01*
D02*
X1706Y1445D02*
X1739Y1478D01*
D02*
X1739Y1478D02*
X2039Y1478D01*
D02*
X1239Y826D02*
X1191Y1402D01*
D02*
X1439Y452D02*
X1405Y401D01*
D02*
X1840Y452D02*
X1439Y452D01*
D02*
X1239Y656D02*
X1239Y826D01*
D02*
X2115Y1102D02*
X1913Y951D01*
D02*
X2039Y1478D02*
X2115Y1428D01*
D02*
X2115Y1428D02*
X2115Y1102D01*
D02*
X1913Y951D02*
X1913Y452D01*
D02*
X1863Y376D02*
X1541Y377D01*
D02*
X1913Y452D02*
X1863Y376D01*
D02*
X189Y502D02*
X188Y278D01*
D02*
X900Y165D02*
X1089Y328D01*
D02*
X444Y165D02*
X900Y165D01*
D02*
X188Y278D02*
X444Y165D01*
G54D18*
D02*
X1408Y90D02*
X1464Y126D01*
D02*
X1464Y126D02*
X1664Y126D01*
D02*
X1664Y126D02*
X1964Y328D01*
D02*
X1964Y328D02*
X1964Y502D01*
D02*
X1964Y502D02*
X2022Y560D01*
G54D17*
D02*
X1288Y328D02*
X1491Y192D01*
D02*
X1089Y328D02*
X1288Y328D01*
D02*
X1141Y207D02*
X1011Y96D01*
G54D16*
D02*
X540Y477D02*
X611Y299D01*
D02*
X540Y597D02*
X540Y477D01*
D02*
X671Y712D02*
X540Y597D01*
G04 End of Copper1*
M02*