<?xml version='1.0' encoding='UTF-8' standalone='no'?>
<!-- Created with Fritzing (http://www.fritzing.org/) -->
<svg xmlns="http://www.w3.org/2000/svg" height="0.7in" width="1in" y="0in" baseProfile="tiny"  x="0in" viewBox="0 0 72 50.4" version="1.2">
    <desc>
        <referenceFile>Si7021 Humidity Rev C_pcb.svg</referenceFile>
    </desc>
    <desc >Fritzing footprint generated by brd2svg</desc>
    <g gorn="0.1" id="silkscreen" >
        <path stroke-width="0.576" stroke="white" d="M0.288,7.4057A6.912,6.912,0,0,1,7.4304,0.288L64.5696,0.288A6.912,6.912,0,0,1,71.712,7.4057L71.712,42.9943A6.912,6.912,0,0,1,64.5696,50.112L7.4304,50.112A6.912,6.912,0,0,1,0.288,42.9943L0.288,7.4057"  fill="none"/>
        <g >
            <title >element:CONN3</title>
            <g >
                <title >package:JST_SH4</title>
                <line stroke-width="0.432" y2="33.7039" x1="65.8942" stroke="white" y1="33.7039" x2="58.5241"  stroke-linecap="round"/>
                <line stroke-width="0.432" y2="30.5858" x1="58.5241" stroke="white" y1="33.7039" x2="58.5241"  stroke-linecap="round"/>
                <line stroke-width="0.432" y2="16.4126" x1="58.5241" stroke="white" y1="19.8142" x2="58.5241"  stroke-linecap="round"/>
                <line stroke-width="0.432" y2="16.4126" x1="58.5241" stroke="white" y1="16.4126" x2="65.8942"  stroke-linecap="round"/>
                <line stroke-width="0.432" y2="19.2473" x1="70.7131" stroke="white" y1="31.1527" x2="70.7131"  stroke-linecap="round"/>
            </g>
        </g>
        <g >
            <title >element:CONN4</title>
            <g >
                <title >package:JST_SH4</title>
                <line stroke-width="0.432" y2="16.6961" x1="6.10583" stroke="white" y1="16.6961" x2="13.4759"  stroke-linecap="round"/>
                <line stroke-width="0.432" y2="19.8142" x1="13.4759" stroke="white" y1="16.6961" x2="13.4759"  stroke-linecap="round"/>
                <line stroke-width="0.432" y2="33.9874" x1="13.4759" stroke="white" y1="30.5858" x2="13.4759"  stroke-linecap="round"/>
                <line stroke-width="0.432" y2="33.9874" x1="13.4759" stroke="white" y1="33.9874" x2="6.10583"  stroke-linecap="round"/>
                <line stroke-width="0.432" y2="31.1527" x1="1.28693" stroke="white" y1="19.2473" x2="1.28693"  stroke-linecap="round"/>
            </g>
        </g>
        <g >
            <title >element:U$30</title>
            <g >
                <title >package:STEMMAQT</title>
            </g>
        </g>
        <g >
            <title >element:U$31</title>
            <g >
                <title >package:STEMMAQT</title>
            </g>
        </g>
    </g>
    <g gorn="0.2" id="copper1" >
        <g gorn="0.2.0" id="copper0" >
            <circle stroke-width="1.44" cx="7.2" gorn="0.2.0.0" id="connector50pad" r="4.26331" cy="43.2" connectorname="P$1" stroke="#F7BD13"  fill="none"/>
            <g transform="matrix(-1, 0, 0, -1, 115.348, 58.9039)" >
                <g >
                    <rect stroke-width="0" gorn="0.2.0.1.0.0" id="connector11pad" height="1.70078" width="4.3937" y="28.6016" stroke="none"  x="55.4769" fill="#F7BD13"/>
                </g>
            </g>
            <g transform="matrix(-1, 0, 0, -1, 115.348, 53.2346)" >
                <g >
                    <rect stroke-width="0" gorn="0.2.0.2.0.0" id="connector12pad" height="1.70078" width="4.3937" y="25.7669" stroke="none"  x="55.4769" fill="#F7BD13"/>
                </g>
            </g>
            <g transform="matrix(-1, 0, 0, -1, 115.348, 47.5654)" >
                <g >
                    <rect stroke-width="0" gorn="0.2.0.3.0.0" id="connector13pad" height="1.70078" width="4.3937" y="22.9323" stroke="none"  x="55.4769" fill="#F7BD13"/>
                </g>
            </g>
            <g transform="matrix(-1, 0, 0, -1, 115.348, 41.8961)" >
                <g >
                    <rect stroke-width="0" gorn="0.2.0.4.0.0" id="connector14pad" height="1.70078" width="4.3937" y="20.0976" stroke="none"  x="55.4769" fill="#F7BD13"/>
                </g>
            </g>
            <circle stroke-width="1.44" cx="7.2" gorn="0.2.0.5" id="connector48pad" r="4.26331" cy="7.2" connectorname="P$1" stroke="#F7BD13"  fill="none"/>
            <rect stroke-width="0" gorn="0.2.0.6" id="connector17pad" height="1.70078" width="4.3937" y="20.0976" stroke="none"  x="12.1295" fill="#F7BD13"/>
            <rect stroke-width="0" gorn="0.2.0.7" id="connector18pad" height="1.70078" width="4.3937" y="22.9323" stroke="none"  x="12.1295" fill="#F7BD13"/>
            <rect stroke-width="0" gorn="0.2.0.8" id="connector19pad" height="1.70078" width="4.3937" y="25.7669" stroke="none"  x="12.1295" fill="#F7BD13"/>
            <rect stroke-width="0" gorn="0.2.0.9" id="connector20pad" height="1.70078" width="4.3937" y="28.6016" stroke="none"  x="12.1295" fill="#F7BD13"/>
            <circle stroke-width="1.44" cx="64.8" gorn="0.2.0.10" id="connector49pad" r="4.26331" cy="7.2" connectorname="P$1" stroke="#F7BD13"  fill="none"/>
            <circle stroke-width="1.10268" cx="21.6" gorn="0.2.0.11" id="connector27pad" r="1.96866" cy="43.2" connectorname="VCC" stroke="#F7BD13"  fill="none"/>
            <circle stroke-width="1.44" cx="64.8" gorn="0.2.0.12" id="connector51pad" r="4.26331" cy="43.2" connectorname="P$1" stroke="#F7BD13"  fill="none"/>
            <circle stroke-width="1.10268" cx="28.8" gorn="0.2.0.13" id="connector28pad" r="1.96866" cy="43.2" connectorname="3.3V" stroke="#F7BD13"  fill="none"/>
            <circle stroke-width="1.10268" cx="36" gorn="0.2.0.14" id="connector29pad" r="1.96866" cy="43.2" connectorname="GND" stroke="#F7BD13"  fill="none"/>
            <circle stroke-width="1.10268" cx="43.2" gorn="0.2.0.15" id="connector30pad" r="1.96866" cy="43.2" connectorname="SCL" stroke="#F7BD13"  fill="none"/>
            <circle stroke-width="1.10268" cx="50.4" gorn="0.2.0.16" id="connector31pad" r="1.96866" cy="43.2" connectorname="SDA" stroke="#F7BD13"  fill="none"/>
        </g>
    </g>
</svg>
