<?xml version='1.0' encoding='utf-8'?>
<!-- Generator: Adobe Illustrator 24.2.3, SVG Export Plug-In . SVG Version: 6.00 Build 0)  -->
<svg xmlns="http://www.w3.org/2000/svg" gorn="0" id="Layer_1" height="0.7in" xml:space="preserve" width="1.08104in" y="0px" enable-background="new 0 0 77.8349 50.4" xmlns:xml="http://www.w3.org/XML/1998/namespace"  x="0px" viewBox="0 0 77.8349 50.4" version="1.1">
    <desc>
        <referenceFile>Si7021 Humidity Rev C_breadboard.svg</referenceFile>
    </desc>
    <desc >Fritzing breadboard generated by brd2svg</desc>
    <g >
        <g gorn="0.1.0" id="icon" >
            <path d="M2.8624,7.2c0-3.9764,3.2235-7.2,7.2-7.2c0,0,0,0,0,0h57.6c3.9764,0,7.2,3.2236,7.2,7.2v36c0,3.9764-3.2235,7.2-7.2,7.2h-57.6c-3.9765,0-7.2-3.2235-7.2-7.2c0,0,0,0,0,0V7.2 M23.0451,43.2c0,0.7828,0.6346,1.4173,1.4173,1.4173c0.7828,0,1.4173-0.6346,1.4173-1.4173s-0.6346-1.4173-1.4173-1.4173C23.6796,41.7827,23.0451,42.4172,23.0451,43.2z M30.2451,43.2c0,0.7828,0.6346,1.4173,1.4173,1.4173c0.7828,0,1.4173-0.6346,1.4173-1.4173s-0.6346-1.4173-1.4173-1.4173C30.8796,41.7827,30.2451,42.4172,30.2451,43.2z M37.4451,43.2c0,0.7828,0.6346,1.4173,1.4173,1.4173c0.7828,0,1.4173-0.6346,1.4173-1.4173s-0.6346-1.4173-1.4173-1.4173S37.4451,42.4172,37.4451,43.2z M44.6451,43.2c0,0.7828,0.6346,1.4173,1.4173,1.4173s1.4173-0.6346,1.4173-1.4173s-0.6346-1.4173-1.4173-1.4173S44.6451,42.4172,44.6451,43.2z M51.8451,43.2c0,0.7828,0.6346,1.4173,1.4173,1.4173c0.7828,0,1.4173-0.6346,1.4173-1.4173s-0.6346-1.4173-1.4173-1.4173S51.8451,42.4172,51.8451,43.2z M6.5191,7.2c-0.0033,1.9569,1.5804,3.546,3.5373,3.5493s3.546-1.5804,3.5493-3.5373c0-0.004,0-0.008,0-0.012c0.0033-1.9569-1.5804-3.546-3.5374-3.5493c-1.9569-0.0033-3.546,1.5804-3.5493,3.5374C6.5191,7.1921,6.5191,7.196,6.5191,7.2z M64.1191,7.2c-0.0034,1.9569,1.5802,3.5461,3.5371,3.5495s3.5461-1.5802,3.5495-3.5371c0-0.0041,0-0.0083,0-0.0124c0.0034-1.9569-1.5802-3.5461-3.5371-3.5495c-1.9569-0.0034-3.5461,1.5802-3.5495,3.5371C64.1191,7.1917,64.1191,7.1958,64.1191,7.2z M6.5191,43.2c-0.0033,1.9569,1.5804,3.546,3.5373,3.5493c1.9569,0.0033,3.546-1.5804,3.5493-3.5373c0-0.004,0-0.008,0-0.012c0.0033-1.9569-1.5804-3.546-3.5374-3.5493s-3.546,1.5804-3.5493,3.5374C6.5191,43.1921,6.5191,43.196,6.5191,43.2z M64.1191,43.2c-0.0034,1.9569,1.5802,3.5461,3.5371,3.5495s3.5461-1.5802,3.5495-3.5371c0-0.0042,0-0.0083,0-0.0125c0.0034-1.9569-1.5802-3.5461-3.5371-3.5495c-1.9569-0.0034-3.5461,1.5802-3.5495,3.5371C64.1191,43.1917,64.1191,43.1959,64.1191,43.2z" />
            <g >
                <g >
                    <g transform="matrix(1 0 0 1 21.1993 49.5504)" >
                        <text font-family="'OCRA'"  font-size="2.67264" fill="#FFFFFF">VIN</text>
                    </g>
                </g>
                <g >
                    <g transform="matrix(1 0 0 1 28.3993 40.1904)" >
                        <text font-family="'OCRA'"  font-size="2.67264" fill="#FFFFFF">3Vo</text>
                    </g>
                </g>
                <g >
                    <g transform="matrix(1 0 0 1 35.5993 49.5504)" >
                        <text font-family="'OCRA'"  font-size="2.67264" fill="#FFFFFF">GND</text>
                    </g>
                </g>
                <g >
                    <g transform="matrix(1 0 0 1 42.7993 40.1904)" >
                        <text font-family="'OCRA'"  font-size="2.67264" fill="#FFFFFF">SCL</text>
                    </g>
                </g>
                <g >
                    <g transform="matrix(1 0 0 1 49.9993 49.5504)" >
                        <text font-family="'OCRA'"  font-size="2.67264" fill="#FFFFFF">SDA</text>
                    </g>
                </g>
                <g >
                    <g transform="matrix(1 0 0 1 28.3555 6.0221)" >
                        <text font-family="'OCRA'"  font-size="3.87536" fill="#FFFFFF">Si7021</text>
                    </g>
                </g>
                <g >
                    <g transform="matrix(1 0 0 1 25.4271 10.6704)" >
                        <text font-family="'OCRA'"  font-size="2.67264" fill="#FFFFFF">Temp &amp; Humidity</text>
                    </g>
                </g>
                <g >
                    <g transform="matrix(1 0 0 1 3.9424 15.12)" >
                        <text font-family="'OCRA'"  font-size="2.67264" fill="#FFFFFF">on</text>
                    </g>
                </g>
                <g >
                    <g >
                        <line stroke-width="0.864" y2="35.64" x1="25.1824" stroke="#FFFFFF" y1="32.76" x2="25.1824"  fill="none" stroke-linecap="round"/>
                    </g>
                </g>
                <g >
                    <g >
                        <line stroke-width="0.864" y2="17.28" x1="25.9024" stroke="#FFFFFF" y1="14.4" x2="25.9024"  fill="none" stroke-linecap="round"/>
                    </g>
                </g>
                <g >
                    <g >
                        <line stroke-width="0.864" y2="33.0661" x1="36.3424" stroke="#FFFFFF" y1="35.3339" x2="36.3424"  fill="none" stroke-linecap="round"/>
                    </g>
                </g>
                <g >
                    <g >
                        <line stroke-width="0.432" y2="33.7039" x1="68.7566" stroke="#FFFFFF" y1="33.7039" x2="61.3865"  fill="none" stroke-linecap="round"/>
                        <line stroke-width="0.432" y2="30.5858" x1="61.3865" stroke="#FFFFFF" y1="33.7039" x2="61.3865"  fill="none" stroke-linecap="round"/>
                        <line stroke-width="0.432" y2="16.4126" x1="61.3865" stroke="#FFFFFF" y1="19.8142" x2="61.3865"  fill="none" stroke-linecap="round"/>
                        <line stroke-width="0.432" y2="16.4126" x1="61.3865" stroke="#FFFFFF" y1="16.4126" x2="68.7566"  fill="none" stroke-linecap="round"/>
                        <line stroke-width="0.432" y2="19.2473" x1="73.5755" stroke="#FFFFFF" y1="31.1527" x2="73.5755"  fill="none" stroke-linecap="round"/>
                    </g>
                </g>
                <g >
                    <g >
                        <line stroke-width="0.432" y2="16.6961" x1="8.9682" stroke="#FFFFFF" y1="16.6961" x2="16.3383"  fill="none" stroke-linecap="round"/>
                        <line stroke-width="0.432" y2="19.8142" x1="16.3383" stroke="#FFFFFF" y1="16.6961" x2="16.3383"  fill="none" stroke-linecap="round"/>
                        <line stroke-width="0.432" y2="33.9874" x1="16.3383" stroke="#FFFFFF" y1="30.5858" x2="16.3383"  fill="none" stroke-linecap="round"/>
                        <line stroke-width="0.432" y2="33.9874" x1="16.3383" stroke="#FFFFFF" y1="33.9874" x2="8.9682"  fill="none" stroke-linecap="round"/>
                        <line stroke-width="0.432" y2="31.1527" x1="4.1493" stroke="#FFFFFF" y1="19.2473" x2="4.1493"  fill="none" stroke-linecap="round"/>
                    </g>
                </g>
                <g >
                    <g >
                        <g >
                            <path stroke-width="0.432" stroke="#FFFFFF" d="M12.5464,14.76l0.9-0.72v1.44L12.5464,14.76"  fill="none" stroke-linecap="round"/>
                        </g>
                        <g transform="matrix(0, -1, 1, 0, 9.504, 14.76)" >
                            <g >
                                <g transform="matrix(-2.535182e-06 -1 1 -2.535182e-06 -2.8624 2.8624)" >
                                    <rect height="2.16" width="0.36" y="1.7824"  x="-0.18" fill="#FFFFFF"/>
                                </g>
                            </g>
                        </g>
                    </g>
                </g>
                <g >
                    <g >
                        <line stroke-width="0.576" y2="32.2781" x1="49.4668" stroke="#FFFFFF" y1="32.2781" x2="52.018"  fill="none" stroke-linecap="round"/>
                        <line stroke-width="0.576" y2="26.0419" x1="49.4668" stroke="#FFFFFF" y1="26.0419" x2="52.018"  fill="none" stroke-linecap="round"/>
                        <circle stroke-width="0.576" cx="51.7346" cy="33.412" r="0.2835" stroke="#FFFFFF"  fill="none"/>
                    </g>
                </g>
                <g >
                    <g >
                        <line stroke-width="0.576" y2="14.0315" x1="46.0766" stroke="#FFFFFF" y1="21.9685" x2="46.0766"  fill="none" stroke-linecap="round"/>
                        <line stroke-width="0.576" y2="21.9685" x1="56.8482" stroke="#FFFFFF" y1="14.0315" x2="56.8482"  fill="none" stroke-linecap="round"/>
                    </g>
                </g>
                <g >
                    <g >
                        <line stroke-width="0.864" y2="15.12" x1="19.8363" stroke="#FFFFFF" y1="15.12" x2="17.5685"  fill="none" stroke-linecap="round"/>
                    </g>
                </g>
                <g >
                    <g >
                        <circle stroke-width="0.576" cx="10.0624" cy="7.2" r="5.6693" stroke="#FFFFFF"  fill="none"/>
                    </g>
                </g>
                <g >
                    <g >
                        <circle stroke-width="0.576" cx="67.6624" cy="7.2" r="5.6693" stroke="#FFFFFF"  fill="none"/>
                    </g>
                </g>
                <g >
                    <g >
                        <circle stroke-width="0.576" cx="10.0624" cy="43.2" r="5.6693" stroke="#FFFFFF"  fill="none"/>
                    </g>
                </g>
                <g >
                    <g >
                        <circle stroke-width="0.576" cx="67.6624" cy="43.2" r="5.6693" stroke="#FFFFFF"  fill="none"/>
                    </g>
                </g>
                <g >
                    <g >
                        <line stroke-width="0.36" y2="20.6646" x1="43.1144" stroke="#FFFFFF" y1="20.6646" x2="43.3978"  fill="none" stroke-linecap="round"/>
                        <line stroke-width="0.36" y2="29.7354" x1="43.3978" stroke="#FFFFFF" y1="20.6646" x2="43.3978"  fill="none" stroke-linecap="round"/>
                        <line stroke-width="0.36" y2="29.7354" x1="43.3978" stroke="#FFFFFF" y1="29.7354" x2="43.1144"  fill="none" stroke-linecap="round"/>
                        <line stroke-width="0.36" y2="20.6646" x1="34.6104" stroke="#FFFFFF" y1="20.6646" x2="34.327"  fill="none" stroke-linecap="round"/>
                        <line stroke-width="0.36" y2="29.7354" x1="34.327" stroke="#FFFFFF" y1="20.6646" x2="34.327"  fill="none" stroke-linecap="round"/>
                        <line stroke-width="0.36" y2="29.7354" x1="34.327" stroke="#FFFFFF" y1="29.7354" x2="34.6104"  fill="none" stroke-linecap="round"/>
                        <circle stroke-width="1.728" cx="43.9648" cy="19.2473" r="0.2835" stroke="#FFFFFF"  fill="none"/>
                    </g>
                </g>
                <g >
                    <g >
                        <line stroke-width="0.576" y2="27.8277" x1="21.2252" stroke="#FFFFFF" y1="23.2923" x2="21.2252"  fill="none" stroke-linecap="round"/>
                        <line stroke-width="0.576" y2="27.8277" x1="30.5796" stroke="#FFFFFF" y1="23.2923" x2="30.5796"  fill="none" stroke-linecap="round"/>
                        <line stroke-width="0.576" y2="22.5836" x1="24.7685" stroke="#FFFFFF" y1="22.5836" x2="27.0363"  fill="none" stroke-linecap="round"/>
                    </g>
                </g>
            </g>
            <rect gorn="0.1.0.2" id="connector5pin" height="4.252" width="3.515" y="32.074"  x="20.732" fill="#9A916C"/>
            <rect gorn="0.1.0.3" id="connector6pin" height="4.252" width="3.515" y="32.074"  x="26.1178" fill="#9A916C"/>
            <rect gorn="0.1.0.4" id="connector7pin" height="4.252" width="3.515" y="13.714"  x="21.452" fill="#9A916C"/>
            <rect gorn="0.1.0.5" id="connector8pin" height="4.252" width="3.515" y="13.714"  x="26.8378" fill="#9A916C"/>
            <g transform="matrix(-1, 0, 0, -1, 71.7789, 68.4)" >
                <g >
                    <rect gorn="0.1.0.6.0.0" id="connector9pin" height="2.8346" width="3.0472" y="32.7827"  x="31.5034" fill="#9A916C"/>
                </g>
            </g>
            <g transform="matrix(-1, 0, 0, -1, 62.1411, 68.4)" >
                <g >
                    <rect gorn="0.1.0.7.0.0" id="connector10pin" height="2.8346" width="3.0472" y="32.7827"  x="26.6845" fill="#9A916C"/>
                </g>
            </g>
            <g transform="matrix(-1, 0, 0, -1, 115.348, 58.9039)" >
                <g >
                    <rect gorn="0.1.0.8.0.0" height="1.7008" width="4.3937" y="28.6016"  x="52.6145" fill="#9A916C"/>
                </g>
            </g>
            <g transform="matrix(-1, 0, 0, -1, 115.348, 53.2346)" >
                <g >
                    <rect gorn="0.1.0.9.0.0" height="1.7008" width="4.3937" y="25.7669"  x="52.6145" fill="#9A916C"/>
                </g>
            </g>
            <g transform="matrix(-1, 0, 0, -1, 115.348, 47.5654)" >
                <g >
                    <rect gorn="0.1.0.10.0.0" height="1.7008" width="4.3937" y="22.9323"  x="52.6145" fill="#9A916C"/>
                </g>
            </g>
            <g transform="matrix(-1, 0, 0, -1, 115.348, 41.8961)" >
                <g >
                    <rect gorn="0.1.0.11.0.0" height="1.7008" width="4.3937" y="20.0976"  x="52.6145" fill="#9A916C"/>
                </g>
            </g>
            <g transform="matrix(-1, 0, 0, -1, 137.457, 66.274)" >
                <g >
                    <rect gorn="0.1.0.12.0.0" id="connector15pin" height="3.4016" width="5.1024" y="31.4362"  x="63.3152" fill="#9A916C"/>
                </g>
            </g>
            <g transform="matrix(-1, 0, 0, -1, 137.457, 34.526)" >
                <g >
                    <rect gorn="0.1.0.13.0.0" id="connector16pin" height="3.4016" width="5.1024" y="15.5622"  x="63.3152" fill="#9A916C"/>
                </g>
            </g>
            <rect gorn="0.1.0.14" height="1.7008" width="4.3937" y="20.0976"  x="14.9919" fill="#9A916C"/>
            <rect gorn="0.1.0.15" height="1.7008" width="4.3937" y="22.9323"  x="14.9919" fill="#9A916C"/>
            <rect gorn="0.1.0.16" height="1.7008" width="4.3937" y="25.7669"  x="14.9919" fill="#9A916C"/>
            <rect gorn="0.1.0.17" height="1.7008" width="4.3937" y="28.6016"  x="14.9919" fill="#9A916C"/>
            <rect gorn="0.1.0.18" id="connector21pin" height="3.4016" width="5.1024" y="15.5622"  x="3.5824" fill="#9A916C"/>
            <rect gorn="0.1.0.19" id="connector22pin" height="3.4016" width="5.1024" y="31.4362"  x="3.5824" fill="#9A916C"/>
            <g transform="matrix(0, -1, 1, 0, -2.55401, 26.966)" >
                <g >
                    <g transform="matrix(-2.535182e-06 -1 1 -2.535182e-06 -5.4162 29.8284)" >
                        <rect gorn="0.1.0.20.0.0.0" id="connector23pin" height="2.2677" width="2.2677" y="16.4885"  x="11.0722" fill="#9A916C"/>
                    </g>
                </g>
            </g>
            <g transform="matrix(0, -1, 1, 0, -6.80599, 22.714)" >
                <g >
                    <g transform="matrix(-2.535182e-06 -1 1 -2.535182e-06 -9.6683 25.5764)" >
                        <rect gorn="0.1.0.21.0.0.0" id="connector24pin" height="2.2677" width="2.2677" y="16.4885"  x="6.8202" fill="#9A916C"/>
                    </g>
                </g>
            </g>
            <path gorn="0.1.0.22" id="connector25pin" d="M17.2624,36.0227L17.2624,36.0227c0.7828,0,1.4173,0.6346,1.4173,1.4173v0c0,0.7828-0.6346,1.4173-1.4173,1.4173h0c-0.7828,0-1.4173-0.6346-1.4173-1.4173v0C15.8451,36.6573,16.4796,36.0227,17.2624,36.0227z"  fill="#9A916C"/>
            <path gorn="0.1.0.23" id="connector26pin" d="M58.3024,2.1827L58.3024,2.1827c0.7828,0,1.4173,0.6346,1.4173,1.4173v0c0,0.7828-0.6346,1.4173-1.4173,1.4173h0c-0.7828,0-1.4173-0.6346-1.4173-1.4173v0C56.8851,2.8172,57.5196,2.1827,58.3024,2.1827z"  fill="#9A916C"/>
            <circle stroke-width="1.1027" cx="24.4624" gorn="0.1.0.24" id="connector27pin" cy="43.2" r="1.9687" stroke="#9A916C"  fill="none"/>
            <circle stroke-width="1.1027" cx="31.6624" gorn="0.1.0.25" id="connector28pin" cy="43.2" r="1.9687" stroke="#9A916C"  fill="none"/>
            <circle stroke-width="1.1027" cx="38.8624" gorn="0.1.0.26" id="connector29pin" cy="43.2" r="1.9687" stroke="#9A916C"  fill="none"/>
            <circle stroke-width="1.1027" cx="46.0624" gorn="0.1.0.27" id="connector30pin" cy="43.2" r="1.9687" stroke="#9A916C"  fill="none"/>
            <circle stroke-width="1.1027" cx="53.2624" gorn="0.1.0.28" id="connector31pin" cy="43.2" r="1.9687" stroke="#9A916C"  fill="none"/>
            <g transform="matrix(0, -1, 1, 0, 19.1452, 81.7171)" >
                <g >
                    <g transform="matrix(-2.535182e-06 -1 1 -2.535182e-06 16.283 84.5797)" >
                        <rect gorn="0.1.0.29.0.0.0" id="connector32pin" height="1.4173" width="1.4173" y="33.4397"  x="49.7226" fill="#9A916C"/>
                    </g>
                </g>
            </g>
            <g transform="matrix(0, -1, 1, 0, 21.2712, 79.591)" >
                <g >
                    <g transform="matrix(-2.535182e-06 -1 1 -2.535182e-06 18.4089 82.4536)" >
                        <rect gorn="0.1.0.30.0.0.0" id="connector33pin" height="1.1339" width="1.4173" y="31.4554"  x="49.7225" fill="#9A916C"/>
                    </g>
                </g>
            </g>
            <g transform="matrix(0, -1, 1, 0, 23.3972, 77.4655)" >
                <g >
                    <g transform="matrix(-2.535182e-06 -1 1 -2.535182e-06 20.5349 80.3278)" >
                        <rect gorn="0.1.0.31.0.0.0" id="connector34pin" height="1.4173" width="1.4173" y="29.1878"  x="49.7226" fill="#9A916C"/>
                    </g>
                </g>
            </g>
            <g transform="matrix(0, -1, 1, 0, 18.2948, 72.3629)" >
                <g >
                    <g transform="matrix(-2.535182e-06 -1 1 -2.535182e-06 15.4324 75.2253)" >
                        <rect gorn="0.1.0.32.0.0.0" id="connector35pin" height="1.4173" width="1.4173" y="29.1878"  x="44.6201" fill="#9A916C"/>
                    </g>
                </g>
            </g>
            <g transform="matrix(0, -1, 1, 0, 16.1688, 74.489)" >
                <g >
                    <g transform="matrix(-2.535182e-06 -1 1 -2.535182e-06 13.3066 77.3512)" >
                        <rect gorn="0.1.0.33.0.0.0" id="connector36pin" height="1.1339" width="1.4173" y="31.4554"  x="44.6202" fill="#9A916C"/>
                    </g>
                </g>
            </g>
            <g transform="matrix(0, -1, 1, 0, 14.0428, 76.6145)" >
                <g >
                    <g transform="matrix(-2.535182e-06 -1 1 -2.535182e-06 11.1805 79.4772)" >
                        <rect gorn="0.1.0.34.0.0.0" id="connector37pin" height="1.4173" width="1.4173" y="33.4397"  x="44.6201" fill="#9A916C"/>
                    </g>
                </g>
            </g>
            <g transform="matrix(-1, 0, 0, -1, 104.57, 31.1811)" >
                <g >
                    <rect gorn="0.1.0.35.0.0" id="connector38pin" height="2.5512" width="1.2756" y="14.315"  x="48.7849" fill="#9A916C"/>
                </g>
            </g>
            <g transform="matrix(-1, 0, 0, -1, 99.468, 31.1811)" >
                <g >
                    <rect gorn="0.1.0.36.0.0" id="connector39pin" height="2.5512" width="1.2756" y="14.315"  x="46.2337" fill="#9A916C"/>
                </g>
            </g>
            <g transform="matrix(-1, 0, 0, -1, 94.932, 31.1811)" >
                <g >
                    <rect gorn="0.1.0.37.0.0" id="connector40pin" height="2.5512" width="1.2756" y="14.315"  x="43.966" fill="#9A916C"/>
                </g>
            </g>
            <g transform="matrix(-1, 0, 0, -1, 89.8301, 31.1811)" >
                <g >
                    <rect gorn="0.1.0.38.0.0" id="connector41pin" height="2.5512" width="1.2756" y="14.315"  x="41.4148" fill="#9A916C"/>
                </g>
            </g>
            <g transform="matrix(-1, 0, 0, -1, 89.8301, 40.8189)" >
                <g >
                    <rect gorn="0.1.0.39.0.0" id="connector42pin" height="2.5512" width="1.2756" y="19.1339"  x="41.4148" fill="#9A916C"/>
                </g>
            </g>
            <g transform="matrix(-1, 0, 0, -1, 94.932, 40.8189)" >
                <g >
                    <rect gorn="0.1.0.40.0.0" id="connector43pin" height="2.5512" width="1.2756" y="19.1339"  x="43.966" fill="#9A916C"/>
                </g>
            </g>
            <g transform="matrix(-1, 0, 0, -1, 99.468, 40.8189)" >
                <g >
                    <rect gorn="0.1.0.41.0.0" id="connector44pin" height="2.5512" width="1.2756" y="19.1339"  x="46.2337" fill="#9A916C"/>
                </g>
            </g>
            <g transform="matrix(-1, 0, 0, -1, 104.57, 40.8189)" >
                <g >
                    <rect gorn="0.1.0.42.0.0" id="connector45pin" height="2.5512" width="1.2756" y="19.1339"  x="48.7849" fill="#9A916C"/>
                </g>
            </g>
            <g transform="matrix(0, 1, -1, 0, 28.5505, -3.12945)" >
                <g >
                    <g transform="matrix(2.535182e-06 1 -1 2.535182e-06 25.6881 -5.9919)" >
                        <rect gorn="0.1.0.43.0.0.0" id="connector46pin" height="3.0472" width="2.8347" y="8.3245"  x="14.4227" fill="#9A916C"/>
                    </g>
                </g>
            </g>
            <g transform="matrix(0, 1, -1, 0, 33.3695, 1.68945)" >
                <g >
                    <g transform="matrix(2.535182e-06 1 -1 2.535182e-06 30.5071 -1.1729)" >
                        <rect gorn="0.1.0.44.0.0.0" id="connector47pin" height="3.0472" width="2.8347" y="13.1435"  x="14.4227" fill="#9A916C"/>
                    </g>
                </g>
            </g>
            <circle stroke-width="1.44" cx="10.0624" gorn="0.1.0.45" id="connector48pin" cy="7.2" r="4.2633" stroke="#9A916C"  fill="none"/>
            <circle stroke-width="1.44" cx="67.6624" gorn="0.1.0.46" id="connector49pin" cy="7.2" r="4.2633" stroke="#9A916C"  fill="none"/>
            <circle stroke-width="1.44" cx="10.0624" gorn="0.1.0.47" id="connector50pin" cy="43.2" r="4.2633" stroke="#9A916C"  fill="none"/>
            <circle stroke-width="1.44" cx="67.6624" gorn="0.1.0.48" id="connector51pin" cy="43.2" r="4.2633" stroke="#9A916C"  fill="none"/>
            <g transform="matrix(0, 1, -1, 0, 59.9244, -17.7449)" >
                <g >
                    <path gorn="0.1.0.49.0.0" id="connector52pin" d="M38.2677,17.5896h1.1339c0.3522,0,0.6378,0.2855,0.6378,0.6378l0,0c0,0.3522-0.2855,0.6378-0.6378,0.6378h-1.1339c-0.3522,0-0.6378-0.2855-0.6378-0.6378l0,0C37.6299,17.8752,37.9155,17.5896,38.2677,17.5896z"  fill="#9A916C"/>
                </g>
            </g>
            <g transform="matrix(0, 1, -1, 0, 57.0897, -14.9103)" >
                <g >
                    <path gorn="0.1.0.50.0.0" id="connector53pin" d="M35.4331,17.5896h1.1339c0.3522,0,0.6378,0.2855,0.6378,0.6378l0,0c0,0.3522-0.2855,0.6378-0.6378,0.6378h-1.1339c-0.3522,0-0.6378-0.2855-0.6378-0.6378l0,0C34.7953,17.8752,35.0808,17.5896,35.4331,17.5896z"  fill="#9A916C"/>
                </g>
            </g>
            <g transform="matrix(0, 1, -1, 0, 54.2551, -12.0756)" >
                <g >
                    <path gorn="0.1.0.51.0.0" id="connector54pin" d="M32.5985,17.5896h1.1339c0.3522,0,0.6378,0.2855,0.6378,0.6378l0,0c0,0.3522-0.2855,0.6378-0.6378,0.6378h-1.1339c-0.3522,0-0.6378-0.2855-0.6378-0.6378l0,0C31.9607,17.8752,32.2463,17.5896,32.5985,17.5896z"  fill="#9A916C"/>
                </g>
            </g>
            <g transform="matrix(0, 1, -1, 0, 62.4756, -3.85512)" >
                <g >
                    <path gorn="0.1.0.52.0.0" id="connector55pin" d="M32.5985,25.81h1.1339c0.3522,0,0.6378,0.2855,0.6378,0.6378v0c0,0.3522-0.2855,0.6378-0.6378,0.6378h-1.1339c-0.3522,0-0.6378-0.2855-0.6378-0.6378v0C31.9607,26.0956,32.2463,25.81,32.5985,25.81z"  fill="#9A916C"/>
                </g>
            </g>
            <g transform="matrix(0, 1, -1, 0, 65.3103, -6.68976)" >
                <g >
                    <path gorn="0.1.0.53.0.0" id="connector56pin" d="M35.4331,25.81h1.1339c0.3522,0,0.6378,0.2855,0.6378,0.6378v0c0,0.3522-0.2855,0.6378-0.6378,0.6378h-1.1339c-0.3522,0-0.6378-0.2855-0.6378-0.6378v0C34.7953,26.0956,35.0808,25.81,35.4331,25.81z"  fill="#9A916C"/>
                </g>
            </g>
            <g transform="matrix(0, 1, -1, 0, 68.1449, -9.52438)" >
                <g >
                    <path gorn="0.1.0.54.0.0" id="connector57pin" d="M38.2677,25.81h1.1339c0.3522,0,0.6378,0.2855,0.6378,0.6378v0c0,0.3522-0.2855,0.6378-0.6378,0.6378h-1.1339c-0.3522,0-0.6378-0.2855-0.6378-0.6378v0C37.6299,26.0956,37.9155,25.81,38.2677,25.81z"  fill="#9A916C"/>
                </g>
            </g>
            <g transform="matrix(0, 1, -1, 0, 61.2, -10.8)" >
                <g >
                    <g transform="matrix(2.535182e-06 1 -1 2.535182e-06 58.3376 -13.6624)" >
                        <rect gorn="0.1.0.55.0.0.0" id="connector58pin" height="4.5354" width="7.0866" y="20.0699"  x="32.4567" fill="#9A916C"/>
                    </g>
                </g>
            </g>
            <rect gorn="0.1.0.56" id="connector59pin" height="3.4016" width="1.559" y="27.5445"  x="22.43" fill="#9A916C"/>
            <rect gorn="0.1.0.57" id="connector60pin" height="3.4016" width="1.559" y="27.5445"  x="25.1229" fill="#9A916C"/>
            <rect gorn="0.1.0.58" id="connector61pin" height="3.4016" width="1.559" y="27.5445"  x="27.8158" fill="#9A916C"/>
            <rect gorn="0.1.0.59" id="connector62pin" height="3.4016" width="1.559" y="20.1739"  x="27.8158" fill="#9A916C"/>
            <rect gorn="0.1.0.60" id="connector63pin" height="3.4016" width="1.559" y="20.1739"  x="22.43" fill="#9A916C"/>
        </g>
        <g transform="matrix(1, 0, 0, 1, 19.4855, 32.4285)" >
            <g gorn="0.1.1.0" id="_x30_805-cap" >
                <path d="M8.2484,3.543h-5.103c-0.156,0-0.283-0.127-0.283-0.283V0.283C2.8624,0.127,2.9894,0,3.1454,0h5.102c0.157,0,0.283,0.127,0.283,0.283V3.26C8.5314,3.416,8.4044,3.543,8.2484,3.543z"  fill="#DCDCDC"/>
                <rect height="3.543" width="3.543" y="0"  x="3.9254" fill="#6E554B"/>
            </g>
        </g>
        <g transform="matrix(1, 0, 0, 1, 20.2055, 14.0685)" >
            <g gorn="0.1.2.0" id="_x30_805-cap_1_" >
                <path d="M8.2484,3.543h-5.103c-0.156,0-0.283-0.127-0.283-0.283V0.283C2.8624,0.127,2.9894,0,3.1454,0h5.102c0.157,0,0.283,0.127,0.283,0.283V3.26C8.5314,3.416,8.4044,3.543,8.2484,3.543z"  fill="#DCDCDC"/>
                <rect height="3.543" width="3.543" y="0"  x="3.9254" fill="#6E554B"/>
            </g>
        </g>
        <g transform="matrix(1, 0, 0, 1, 31.2125, 33.066)" >
            <g gorn="0.1.3.0" id="_x30_603-cap" >
                <g transform="matrix(-1, 0, 0, -1, 4.535, 2.268)" >
                    <g >
                        <path d="M1.3826,2.268h-3.955c-0.16,0-0.29-0.13-0.29-0.291V0.29c0-0.16,0.13-0.29,0.29-0.29h3.955c0.16,0,0.29,0.13,0.29,0.29v1.687C1.6726,2.138,1.5426,2.268,1.3826,2.268z"  fill="#DCDCDC"/>
                        <rect height="2.268" width="2.268" y="0"  x="-1.7284" fill="#6E554B"/>
                    </g>
                </g>
            </g>
        </g>
        <g transform="matrix(1, 0, 0, 1, 54.5625, 16.0925)" >
            <g gorn="0.1.4.0" id="jst_sh4" >
                <g transform="matrix(0, -1, 1, 0, -0.291564, 17.9233)" >
                    <g >
                        <path gorn="0.1.4.0.0.0.0" id="polygon5" connector-curvature="0" d="M1.8525,7.5938l14.1872-0.017l0.0019,1.4315l1.4185-0.0017l0.0136,10.0208L0.4499,19.0478L0.4363,9.027l1.418-0.0017L1.8525,7.5938z"  fill="#666666"/>
                        <g transform="matrix(-0.0068 -1 1 -0.0068 2.2142 27.2183)" >
                            <rect gorn="0.1.4.0.0.0.1.0" id="rect7" height="1.4185" width="4.3718" y="11.8003"  x="12.4379"/>
                        </g>
                        <g transform="matrix(-0.0068 -1 1 -0.0068 -9.2865 15.9503)" >
                            <rect gorn="0.1.4.0.0.0.2.0" id="rect9" height="1.4185" width="4.3718" y="11.8776"  x="1.0918"/>
                        </g>
                        <g transform="matrix(-0.0068 -1 1 -0.0068 5.1071 24.2624)" >
                            <rect gorn="0.1.4.0.0.0.3.0" id="rect11" height="1.4185" width="1.4574" y="8.8858"  x="13.8736" fill="#333333"/>
                        </g>
                        <g transform="matrix(-0.0068 -1 1 -0.0068 -6.3936 12.9944)" >
                            <rect gorn="0.1.4.0.0.0.4.0" id="rect13" height="1.4185" width="1.4574" y="8.9631"  x="2.5275" fill="#333333"/>
                        </g>
                        <g transform="matrix(-0.0068 -1 1 -0.0068 6.2009 20.2675)" >
                            <rect gorn="0.1.4.0.0.0.5.0" id="rect19" height="0.9927" width="3.6433" y="6.558"  x="11.3437" fill="#DCDCDC"/>
                        </g>
                        <g transform="matrix(-0.0068 -1 1 -0.0068 3.3259 17.4507)" >
                            <rect gorn="0.1.4.0.0.0.6.0" id="rect21" height="0.9927" width="3.6433" y="6.5773"  x="8.5074" fill="#DCDCDC"/>
                        </g>
                        <g transform="matrix(-0.0068 -1 1 -0.0068 3.3259 17.4507)" >
                            <rect gorn="0.1.4.0.0.0.7.0" id="rect4164" height="0.9927" width="3.6433" y="6.5773"  x="8.5074" fill="#DCDCDC"/>
                        </g>
                        <g transform="matrix(-0.0068 -1 1 -0.0068 0.4506 14.6336)" >
                            <rect gorn="0.1.4.0.0.0.8.0" id="rect4188" height="0.9927" width="3.6433" y="6.5967"  x="5.6708" fill="#DCDCDC"/>
                        </g>
                        <g transform="matrix(-0.0068 -1 1 -0.0068 -2.4246 11.8166)" >
                            <rect gorn="0.1.4.0.0.0.9.0" id="rect4143" height="0.9927" width="3.6433" y="6.616"  x="2.8342" fill="#DCDCDC"/>
                        </g>
                        <path gorn="0.1.4.0.0.0.10" id="path594" connector-curvature="0" d="M0.4503,14.1608c0-2.6862-0.0043-4.9385-0.0095-5.0052L0.4314,9.0344h0.7148h0.7148V8.3145V7.5946h1.1437h1.1436l0.0097,0.3416c0.0053,0.1879,0.0097,0.492,0.0097,0.6758l0,0.3342l0.2241,0c0.1232,0,0.348-0.0044,0.4995-0.0097l0.2755-0.0096V8.2608V7.5946h0.9086h0.9086L6.9935,7.826c0.0053,0.1273,0.0096,0.4248,0.0096,0.6612l0,0.4297l0.4996,0h0.4995V8.2557V7.5946h0.9109h0.9109L9.826,7.7048c0.001,0.0606,0.0035,0.1168,0.0055,0.1249S9.836,8.0825,9.837,8.3735l0.0018,0.5291l0.5007-0.0039l0.5007-0.0039l-0.0018-0.6501l-0.0018-0.6501h0.9099c0.8162,0,0.9108,0.0024,0.9188,0.0232c0.0049,0.0128,0.0089,0.3037,0.0089,0.6465v0.6232h0.3062c0.1684,0,0.3949-0.0042,0.5032-0.0094l0.197-0.0094l-0.0044-0.6444L13.672,7.5799h1.1834h1.1834v0.7199v0.7199h0.7028h0.7028l0.0098,1.6553c0.0054,0.9104,0.0098,3.1616,0.0098,5.0027v3.3474l-3.2507,0c-1.7879,0-5.6159,0.0044-8.5068,0.0098l-5.2562,0.0098L0.4503,14.1608z M4.006,14.4742c0.0002-0.545-0.0289-4.2541-0.0384-4.9092L3.9583,8.9277L3.2512,8.9384C2.8623,8.9444,2.5422,8.9509,2.54,8.953c-0.0055,0.0052,0.0236,4.2668,0.0351,5.1319l0.0092,0.6942h0.7108h0.7108L4.006,14.4742L4.006,14.4742z M15.3433,14.6861c0.0116-0.0116-0.0206-5.4879-0.0335-5.6931l-0.0086-0.1369l-0.7026,0.0047c-0.3864,0.0026-0.7058,0.008-0.7097,0.012c-0.0067,0.0069,0.0045,1.8862,0.0275,4.6263l0.0102,1.2104l0.7033-0.0067C15.0168,14.6991,15.3378,14.6916,15.3433,14.6861z" />
                        <path gorn="0.1.4.0.0.0.11" id="path596" connector-curvature="0" d="M2.5459,10.3127c-0.005-0.0525-0.0091-0.3774-0.0091-0.722L2.5367,8.9642l0.0551-0.0071c0.0736-0.0095,0.4796-0.0168,0.9673-0.0176l0.398-0.0006l0.0091,0.5216c0.005,0.2869,0.0051,0.6157,0.0001,0.7307l-0.009,0.2091l-0.7012,0.004l-0.7012,0.004L2.5459,10.3127z" />
                        <path gorn="0.1.4.0.0.0.12" id="path598" connector-curvature="0" d="M13.9034,10.1267c-0.0053-0.1104-0.0096-0.4376-0.0096-0.7273l0.0001-0.5266l0.1065-0.0034c0.0586-0.0019,0.3759-0.0035,0.7052-0.0037l0.5986-0.0002l0.0016,0.0955c0.0009,0.0525,0.0026,0.3814,0.0038,0.7309l0.0022,0.6354l-0.6993,0l-0.6993,0L13.9034,10.1267z" />
                        <g transform="matrix(-2.535182e-06 -1 1 -2.535182e-06 -19.1436 23.7196)" >
                            <ellipse cx="2.288" gorn="0.1.4.0.0.0.13.0" id="connector11pin" cy="21.4315"  rx="2.0127" ry="2.0127"/>
                        </g>
                        <g transform="matrix(-2.535182e-06 -1 1 -2.535182e-06 -14.6081 28.255)" >
                            <ellipse cx="6.8234" gorn="0.1.4.0.0.0.14.0" id="connector12pin" cy="21.4315"  rx="2.0127" fill="#FF0000" ry="2.0127"/>
                        </g>
                        <g transform="matrix(-2.535182e-06 -1 1 -2.535182e-06 -10.0727 32.7904)" >
                            <ellipse cx="11.3588" gorn="0.1.4.0.0.0.15.0" id="connector13pin" cy="21.4315"  rx="2.0127" fill="#0000FF" ry="2.0127"/>
                        </g>
                        <g transform="matrix(-2.535182e-06 -1 1 -2.535182e-06 -5.5373 37.3258)" >
                            <ellipse cx="15.8942" gorn="0.1.4.0.0.0.16.0" id="connector14pin" cy="21.4315"  rx="2.0127" fill="#FFFF00" ry="2.0127"/>
                        </g>
                    </g>
                </g>
            </g>
        </g>
        <g transform="matrix(1, 0, 0, 1, -0.194322, 16.0925)" >
            <g gorn="0.1.5.0" id="jst_sh4_1_" >
                <g transform="matrix(0, 1, -1, 0, 17.9233, 0.291564)" >
                    <g >
                        <path gorn="0.1.5.0.0.0.0" id="polygon5_1_" connector-curvature="0" d="M1.7975,1.7589l14.1872-0.017l0.0019,1.4315l1.4185-0.0017l0.0136,10.0208L0.3949,13.2129L0.3813,3.1921l1.418-0.0017L1.7975,1.7589z"  fill="#666666"/>
                        <g transform="matrix(0.0068 1 -1 0.0068 21.144 -7.9392)" >
                            <rect gorn="0.1.5.0.0.0.1.0" id="rect7_1_" height="1.4185" width="4.3718" y="5.9655"  x="12.3829"/>
                        </g>
                        <g transform="matrix(0.0068 1 -1 0.0068 9.9526 3.4834)" >
                            <rect gorn="0.1.5.0.0.0.2.0" id="rect9_1_" height="1.4185" width="4.3718" y="6.0428"  x="1.0368"/>
                        </g>
                        <g transform="matrix(0.0068 1 -1 0.0068 18.2082 -10.8124)" >
                            <rect gorn="0.1.5.0.0.0.3.0" id="rect11_1_" height="1.4185" width="1.4574" y="3.0509"  x="13.8186" fill="#333333"/>
                        </g>
                        <g transform="matrix(0.0068 1 -1 0.0068 7.0168 0.6102)" >
                            <rect gorn="0.1.5.0.0.0.4.0" id="rect13_1_" height="1.4185" width="1.4574" y="3.1282"  x="2.4725" fill="#333333"/>
                        </g>
                        <g transform="matrix(0.0068 1 -1 0.0068 14.2404 -11.8988)" >
                            <rect gorn="0.1.5.0.0.0.5.0" id="rect19_1_" height="0.9927" width="3.6433" y="0.7232"  x="11.2887" fill="#DCDCDC"/>
                        </g>
                        <g transform="matrix(0.0068 1 -1 0.0068 11.4428 -9.0434)" >
                            <rect gorn="0.1.5.0.0.0.6.0" id="rect21_1_" height="0.9927" width="3.6433" y="0.7425"  x="8.4523" fill="#DCDCDC"/>
                        </g>
                        <g transform="matrix(0.0068 1 -1 0.0068 11.4428 -9.0434)" >
                            <rect gorn="0.1.5.0.0.0.7.0" id="rect4164_1_" height="0.9927" width="3.6433" y="0.7425"  x="8.4523" fill="#DCDCDC"/>
                        </g>
                        <g transform="matrix(0.0068 1 -1 0.0068 8.6448 -6.1876)" >
                            <rect gorn="0.1.5.0.0.0.8.0" id="rect4188_1_" height="0.9927" width="3.6433" y="0.7618"  x="5.6157" fill="#DCDCDC"/>
                        </g>
                        <g transform="matrix(0.0068 1 -1 0.0068 5.8469 -3.332)" >
                            <rect gorn="0.1.5.0.0.0.9.0" id="rect4143_1_" height="0.9927" width="3.6433" y="0.7811"  x="2.7792" fill="#DCDCDC"/>
                        </g>
                        <path gorn="0.1.5.0.0.0.10" id="path594_1_" connector-curvature="0" d="M0.3953,8.326c0-2.6862-0.0043-4.9385-0.0095-5.0052L0.3763,3.1996h0.7148h0.7148V2.4797V1.7597h1.1437h1.1436l0.0097,0.3416c0.0053,0.1879,0.0097,0.492,0.0097,0.6758l0,0.3342l0.2241,0c0.1232,0,0.348-0.0044,0.4995-0.0097l0.2755-0.0096V2.4259V1.7597h0.9086h0.9086l0.0096,0.2314C6.9437,2.1184,6.948,2.4159,6.9481,2.6523l0,0.4297l0.4996,0h0.4995V2.4209V1.7597h0.9109h0.9109l0.0018,0.1102c0.001,0.0606,0.0035,0.1168,0.0055,0.1249c0.002,0.0081,0.0045,0.2528,0.0055,0.5438l0.0018,0.5291l0.5007-0.0039L10.7852,3.06l-0.0018-0.6501l-0.0018-0.6501h0.9099c0.8162,0,0.9108,0.0024,0.9188,0.0232c0.0049,0.0128,0.0089,0.3037,0.0089,0.6465v0.6232h0.3062c0.1684,0,0.3949-0.0042,0.5032-0.0094l0.197-0.0094l-0.0044-0.6444L13.617,1.7451h1.1834h1.1834V2.465v0.7199h0.7028h0.7028l0.0098,1.6553c0.0054,0.9104,0.0098,3.1616,0.0098,5.0027v3.3474l-3.2507,0c-1.7879,0-5.6159,0.0044-8.5068,0.0098l-5.2562,0.0098L0.3953,8.326z M3.951,8.6394c0.0002-0.545-0.0289-4.2541-0.0384-4.9092L3.9033,3.0928L3.1962,3.1036C2.8072,3.1095,2.4872,3.1161,2.485,3.1182C2.4794,3.1234,2.5085,7.385,2.52,8.25l0.0092,0.6942h0.7108h0.7108L3.951,8.6394L3.951,8.6394z M15.2883,8.8512c0.0116-0.0116-0.0206-5.4879-0.0335-5.6931l-0.0086-0.1369l-0.7026,0.0047c-0.3864,0.0026-0.7058,0.008-0.7097,0.012c-0.0067,0.0069,0.0045,1.8862,0.0275,4.6263l0.0102,1.2104L14.575,8.868C14.9618,8.8643,15.2828,8.8567,15.2883,8.8512z" />
                        <path gorn="0.1.5.0.0.0.11" id="path596_1_" connector-curvature="0" d="M2.4909,4.4778c-0.005-0.0525-0.0091-0.3774-0.0091-0.722L2.4817,3.1293l0.0551-0.0071c0.0736-0.0095,0.4796-0.0168,0.9673-0.0176l0.398-0.0006l0.0091,0.5216c0.005,0.2869,0.0051,0.6157,0.0001,0.7307l-0.009,0.2091l-0.7012,0.004l-0.7012,0.004L2.4909,4.4778z" />
                        <path gorn="0.1.5.0.0.0.12" id="path598_1_" connector-curvature="0" d="M13.8484,4.2918c-0.0053-0.1104-0.0096-0.4376-0.0096-0.7273l0.0001-0.5266l0.1065-0.0034c0.0586-0.0019,0.3759-0.0035,0.7052-0.0037l0.5986-0.0002l0.0016,0.0955c0.0009,0.0525,0.0026,0.3814,0.0038,0.7309l0.0022,0.6354l-0.6993,0l-0.6993,0L13.8484,4.2918z" />
                        <g transform="matrix(2.535182e-06 1 -1 2.535182e-06 17.8296 13.3637)" >
                            <ellipse cx="2.2329" gorn="0.1.5.0.0.0.13.0" id="connector17pin" cy="15.5967"  rx="2.0127" ry="2.0127"/>
                        </g>
                        <g transform="matrix(2.535182e-06 1 -1 2.535182e-06 22.365 8.8283)" >
                            <ellipse cx="6.7683" gorn="0.1.5.0.0.0.14.0" id="connector18pin" cy="15.5967"  rx="2.0127" fill="#FF0000" ry="2.0127"/>
                        </g>
                        <g transform="matrix(2.535182e-06 1 -1 2.535182e-06 26.9005 4.2929)" >
                            <ellipse cx="11.3038" gorn="0.1.5.0.0.0.15.0" id="connector19pin" cy="15.5967"  rx="2.0127" fill="#0000FF" ry="2.0127"/>
                        </g>
                        <g transform="matrix(2.535182e-06 1 -1 2.535182e-06 31.4358 -0.2425)" >
                            <ellipse cx="15.8392" gorn="0.1.5.0.0.0.16.0" id="connector20pin" cy="15.5967"  rx="2.0127" fill="#FFFF00" ry="2.0127"/>
                        </g>
                    </g>
                </g>
            </g>
        </g>
        <g transform="matrix(1, 0, 0, 1, 8.946, 12.4925)" >
            <g gorn="0.1.6.0" id="_x30_603-led-green" >
                <g transform="matrix(0, -1, 1, 0, -1.1335, 3.4015)" >
                    <g >
                        <path d="M2.268,3.1524v3.955c0,0.16-0.13,0.29-0.29,0.29H0.29c-0.16,0-0.29-0.13-0.29-0.29v-3.955c0-0.16,0.13-0.29,0.29-0.29h1.687C2.138,2.8624,2.268,2.9924,2.268,3.1524z"  fill="#DCDCDC"/>
                        <g transform="matrix(-2.535182e-06 -1 1 -2.535182e-06 -3.9959 6.2641)" >
                            <rect height="2.268" width="2.268" y="3.996"  x="0.0001" fill="#00FF00"/>
                        </g>
                        <circle cx="1.134" cy="5.1304" r="0.354"  fill="#00B400"/>
                    </g>
                </g>
            </g>
        </g>
        <g transform="matrix(1, 0, 0, 1, 44.3365, 26.8921)" >
            <g gorn="0.1.7.0" id="sot363" >
                <g transform="matrix(0, -1, 1, 0, 0.567, 6.52)" >
                    <g >
                        <g >
                            <g transform="matrix(-2.535182e-06 -1 1 -2.535182e-06 -1.5864 10.0914)" >
                                <rect height="0.709" width="5.953" y="5.4844"  x="1.276" fill="#DCDCDC"/>
                            </g>
                            <g transform="matrix(-2.535182e-06 -1 1 -2.535182e-06 0.2566 11.9344)" >
                                <rect height="0.709" width="5.953" y="5.4844"  x="3.119" fill="#DCDCDC"/>
                            </g>
                            <g transform="matrix(-2.535182e-06 -1 1 -2.535182e-06 -3.4284 8.2494)" >
                                <rect height="0.709" width="5.953" y="5.4844"  x="-0.566" fill="#DCDCDC"/>
                            </g>
                            <g transform="matrix(-2.535182e-06 -1 1 -2.535182e-06 -1.5864 10.0914)" >
                                <rect height="5.669" width="3.543" y="3.0044"  x="2.481" fill="#303030"/>
                            </g>
                        </g>
                    </g>
                </g>
            </g>
        </g>
        <g transform="matrix(1, 0, 0, 1, 44.0645, 15.7325)" >
            <g gorn="0.1.8.0" id="respack_4x0603" >
                <g transform="matrix(-1, 0, 0, -1, 9.07099, 4.535)" >
                    <g >
                        <g >
                            <rect height="4.535" width="1.843" y="0"  x="-2.8624" fill="#DCDCDC"/>
                            <rect height="4.535" width="1.417" y="0"  x="-0.1694" fill="#DCDCDC"/>
                            <rect height="4.535" width="1.417" y="0"  x="2.0986" fill="#DCDCDC"/>
                            <rect height="4.535" width="1.843" y="0"  x="4.3656" fill="#DCDCDC"/>
                            <rect height="2.835" width="9.071" y="0.85"  x="-2.8624" fill="#303030"/>
                        </g>
                    </g>
                </g>
            </g>
        </g>
        <g transform="matrix(1, 0, 0, 1, 13.5725, 13.986)" >
            <g gorn="0.1.9.0" id="_x30_603-res" >
                <g transform="matrix(0, 1, -1, 0, 3.4015, -1.1335)" >
                    <g >
                        <path d="M4.245-0.5944H0.29c-0.16,0-0.29-0.13-0.29-0.291v-1.687c0-0.16,0.13-0.29,0.29-0.29h3.955c0.16,0,0.29,0.13,0.29,0.29v1.687C4.535-0.7244,4.405-0.5944,4.245-0.5944z"  fill="#DCDCDC"/>
                        <g transform="matrix(2.535182e-06 1 -1 2.535182e-06 0.5396 -3.9964)" >
                            <rect height="2.268" width="2.268" y="-2.8624"  x="1.134" fill="#333333"/>
                        </g>
                    </g>
                </g>
            </g>
        </g>
        <g transform="matrix(1, 0, 0, 1, 12.0075, 2.69402)" >
            <g gorn="0.1.10.0" id="adafruit_3.5mm" >
                <path d="M14.4519,2.7647c-0.032-0.2-0.141-0.257-0.403-0.341c-0.199-0.064-1.533-0.489-1.533-0.489s-0.93-0.351-1.619,0.146c-0.093,0.066-0.189,0.143-0.286,0.224c0.082-0.097,0.158-0.193,0.224-0.286c0.495-0.69,0.143-1.619,0.143-1.619s-0.427-1.334-0.492-1.533c-0.085-0.262-0.142-0.37-0.342-0.402c-0.2-0.032-0.288,0.054-0.449,0.277c-0.122,0.17-0.939,1.307-0.939,1.307s-0.621,0.777-0.361,1.586c0.034,0.109,0.077,0.224,0.125,0.341c-0.067-0.108-0.135-0.209-0.203-0.302c-0.503-0.684-1.496-0.636-1.496-0.636s-1.4-0.006-1.61-0.006c-0.275-0.001-0.396,0.02-0.488,0.201c-0.091,0.181-0.037,0.291,0.126,0.513c0.124,0.169,0.953,1.297,0.953,1.297s0.546,0.83,1.395,0.834c0.114,0,0.236-0.005,0.362-0.014c-0.122,0.03-0.24,0.064-0.348,0.1c-0.806,0.267-1.067,1.226-1.067,1.226s-0.438,1.33-0.503,1.529c-0.086,0.261-0.103,0.383,0.04,0.526c0.144,0.143,0.265,0.126,0.526,0.04c0.199-0.065,1.528-0.506,1.528-0.506s0.958-0.263,1.224-1.07c0.036-0.108,0.069-0.225,0.1-0.348c-0.009,0.126-0.014,0.248-0.013,0.362c0.005,0.849,0.836,1.394,0.836,1.394s1.13,0.827,1.298,0.951c0.223,0.162,0.333,0.216,0.514,0.124c0.181-0.092,0.201-0.213,0.2-0.488c-0.001-0.21-0.009-1.61-0.009-1.61s0.047-0.993-0.639-1.495c-0.092-0.067-0.194-0.135-0.301-0.202c0.117,0.047,0.232,0.09,0.34,0.124c0.81,0.258,1.584-0.364,1.584-0.364s1.136-0.819,1.306-0.941C14.3979,3.0537,14.4839,2.9657,14.4519,2.7647z M9.6299,1.7337c0.152,0.024,0.228,0.349,0.169,0.726s-0.231,0.662-0.384,0.638s-0.229-0.349-0.169-0.725C9.3049,1.9957,9.4769,1.7097,9.6299,1.7337z M7.6739,2.7327c0.07-0.138,0.402-0.11,0.742,0.063c0.34,0.173,0.558,0.425,0.488,0.563c-0.07,0.138-0.402,0.11-0.742-0.063C7.8219,3.1227,7.6039,2.8707,7.6739,2.7327z M8.7049,4.6107c-0.269,0.27-0.577,0.4-0.686,0.291c-0.109-0.109,0.02-0.416,0.29-0.686c0.269-0.27,0.576-0.4,0.686-0.291C9.1039,4.0337,8.9739,4.3407,8.7049,4.6107z M10.1889,5.2437c-0.138,0.07-0.39-0.148-0.563-0.487c-0.174-0.34-0.203-0.673-0.065-0.743c0.138-0.07,0.39,0.148,0.563,0.487C10.2969,4.8407,10.3259,5.1727,10.1889,5.2437z M10.5459,3.6707c-0.377,0.06-0.701-0.015-0.726-0.168c-0.024-0.153,0.262-0.325,0.638-0.385c0.377-0.06,0.701,0.015,0.726,0.168C11.2079,3.4387,10.9229,3.6107,10.5459,3.6707z"  fill="#DCDCDC"/>
            </g>
        </g>
        <g transform="matrix(1, 0, 0, 1, 32.5153, 20.1274)" >
            <g gorn="0.1.11.0" id="dfn6_3x3_si" >
                <g transform="matrix(0, 1, -1, 0, 8.50392, 0)" >
                    <g >
                        <g transform="matrix(2.535182e-06 1 -1 2.535182e-06 7.1828 -2.8899)" >
                            <rect gorn="0.1.11.0.0.0.0.0" id="rect5" height="8.5039" width="8.5039" y="-2.1055"  x="0.7844" fill="#333333"/>
                        </g>
                        <path gorn="0.1.11.0.0.0.1" id="rect4154" connector-curvature="0" d="M2.2017-1.822h6.7887v7.937h-7.937l0.0144-6.8032"  fill="#ECECEC"/>
                    </g>
                </g>
            </g>
        </g>
        <g transform="matrix(1, 0, 0, 1, 18.93, 21.733)" >
            <g gorn="0.1.12.0" id="sot23-5" >
                <g >
                    <rect height="7.654" width="1.134" y="0"  x="3.7124" fill="#DCDCDC"/>
                    <rect height="7.654" width="1.134" y="0"  x="9.0984" fill="#DCDCDC"/>
                    <rect height="3.118" width="1.134" y="4.535"  x="6.4054" fill="#DCDCDC"/>
                    <rect height="4.535" width="8.22" y="1.559"  x="2.8624" fill="#303030"/>
                </g>
            </g>
        </g>
    </g>
</svg>
