<?xml version='1.0' encoding='UTF-8' standalone='no'?>
<svg
  xmlns:dc="http://purl.org/dc/elements/1.1/"
  xmlns:cc="http://creativecommons.org/ns#"
  xmlns:rdf="http://www.w3.org/1999/02/22-rdf-syntax-ns#"
  xmlns:svg="http://www.w3.org/2000/svg"
  xmlns="http://www.w3.org/2000/svg"
  xml:space="preserve"
  gorn="0"
  viewBox="0 0 28.35 35.43"
  enable-background="new 0 0 28.35 35.43"
  version="1.1"
  y="0px"
  width="0.39375in"
  x="0px"
  id="Layer_2"
  height="0.492083in">
  <metadata
    id="metadata99">
    <rdf:RDF>
      <cc:Work
        rdf:about="">
        <dc:format>image/svg+xml</dc:format>
        <dc:type
          rdf:resource="http://purl.org/dc/dcmitype/StillImage"
        />
        <dc:title/>
      </cc:Work>
    </rdf:RDF>
  </metadata>
  <defs
    id="defs97">
      </defs>
  <desc
    id="desc2">
    <referenceFile>Si7021_0b418c3e8d4b51454ae2001bda607edb_2_breadboard.svg</referenceFile>
  </desc>
  <g
    id="breadboard">
    <path
      gorn="0.3.0"
      d="M 28.35,35.43 H 0 V 0 H 28.35 Z M 2.178,4.822 c 0,0.66 0.536,1.196 1.197,1.196 0.661,0 1.197,-0.536 1.197,-1.196 0,-0.662 -0.536,-1.197 -1.197,-1.197 -0.661,0 -1.197,0.535 -1.197,1.197 z m 7.199,0 c 0,0.66 0.536,1.196 1.197,1.196 0.661,0 1.196,-0.536 1.196,-1.196 0,-0.662 -0.535,-1.197 -1.196,-1.197 -0.661,0 -1.197,0.535 -1.197,1.197 z m 7.201,0 c 0,0.66 0.536,1.196 1.197,1.196 0.661,0 1.196,-0.536 1.196,-1.196 0,-0.662 -0.535,-1.197 -1.196,-1.197 -0.661,0 -1.197,0.535 -1.197,1.197 z m 7.2,0 c 0,0.66 0.535,1.196 1.196,1.196 0.661,0 1.197,-0.536 1.197,-1.196 0,-0.662 -0.536,-1.197 -1.197,-1.197 -0.661,0 -1.196,0.535 -1.196,1.197 z m -2.752,18.642 c -2.298,0 -4.161,1.863 -4.161,4.161 0,2.298 1.863,4.161 4.161,4.161 2.298,0 4.161,-1.863 4.161,-4.161 0,-2.298 -1.863,-4.161 -4.161,-4.161 z"
      id="path4"
      fill="#172952"
    />
    <path
      gorn="0.3.1"
      d="m 21.026,22 c -3.142,0 -5.688,2.546 -5.688,5.688 0,3.142 2.546,5.688 5.688,5.688 3.142,0 5.688,-2.546 5.688,-5.688 C 26.714,24.546 24.168,22 21.026,22 Z m 0,9.786 c -2.298,0 -4.161,-1.863 -4.161,-4.161 0,-2.298 1.863,-4.161 4.161,-4.161 2.298,0 4.161,1.863 4.161,4.161 0,2.298 -1.863,4.161 -4.161,4.161 z"
      id="path64"
      fill="#999999"
    />
    <rect
      height="10.619"
      id="rect66"
      x="2.563"
      width="9.7919998"
      y="21.167"
      gorn="0.3.2.0"
      fill="#e0e0e0"
    />
    <path
      gorn="0.3.2.1.0"
      d="m 11.836,29.584 c 0,0.779 -0.638,1.417 -1.417,1.417 h -5.94 c -0.78,0 -1.417,-0.638 -1.417,-1.417 v -6.19 c 0,-0.779 0.638,-1.417 1.417,-1.417 h 5.94 c 0.78,0 1.417,0.638 1.417,1.417 z"
      id="path68"
      fill="#999999"
    />
    <circle
      id="circle72"
      cy="24.708"
      cx="4.6040001"
      r="0.625"
      gorn="0.3.2.2"
      fill="#414141"
    />
    <path
      id="connector10pin"
      d="m 3.375,2.428 c -1.322,0 -2.393,1.071 -2.393,2.393 0,1.322 1.071,2.394 2.393,2.394 1.322,0 2.393,-1.071 2.393,-2.394 C 5.768,3.5 4.697,2.428 3.375,2.428 Z m 0,3.591 c -0.661,0 -1.197,-0.536 -1.197,-1.197 0,-0.661 0.536,-1.197 1.197,-1.197 0.661,0 1.197,0.536 1.197,1.197 0,0.661 -0.536,1.197 -1.197,1.197 z"
      gorn="0.3.3.0"
      fill="#9a916c"
    />
    <rect
      height="0.0095739998"
      id="connector10terminal"
      x="5.7632141"
      width="0.0095720002"
      y="4.8167129"
      gorn="0.3.3.1"
      fill="none"
      stroke="none"
      stroke-width="0"
    />
    <path
      id="connector9pin"
      d="m 10.574,2.428 c -1.322,0 -2.393,1.071 -2.393,2.393 0,1.322 1.071,2.394 2.393,2.394 1.322,0 2.393,-1.071 2.393,-2.394 0,-1.321 -1.071,-2.393 -2.393,-2.393 z m 0,3.591 c -0.661,0 -1.197,-0.536 -1.197,-1.197 0,-0.661 0.536,-1.197 1.197,-1.197 0.661,0 1.196,0.536 1.196,1.197 0,0.661 -0.535,1.197 -1.196,1.197 z"
      gorn="0.3.3.2"
      fill="#9a916c"
    />
    <path
      id="connector6pin"
      d="m 17.773,2.428 c -1.321,0 -2.393,1.071 -2.393,2.393 0,1.322 1.071,2.394 2.393,2.394 1.322,0 2.394,-1.071 2.394,-2.394 0,-1.321 -1.071,-2.393 -2.394,-2.393 z m 0.002,3.591 c -0.661,0 -1.197,-0.536 -1.197,-1.197 0,-0.661 0.536,-1.197 1.197,-1.197 0.661,0 1.196,0.536 1.196,1.197 0,0.661 -0.534,1.197 -1.196,1.197 z"
      gorn="0.3.3.3"
      fill="#9a916c"
    />
    <path
      id="connector5pin"
      d="m 24.975,2.428 c -1.321,0 -2.393,1.071 -2.393,2.393 0,1.322 1.071,2.394 2.393,2.394 1.322,0 2.394,-1.071 2.394,-2.394 C 27.368,3.5 26.297,2.428 24.975,2.428 Z m 0,3.591 c -0.661,0 -1.196,-0.536 -1.196,-1.197 0,-0.661 0.535,-1.197 1.196,-1.197 0.661,0 1.197,0.536 1.197,1.197 0,0.661 -0.536,1.197 -1.197,1.197 z"
      gorn="0.3.3.4"
      fill="#9a916c"
    />
  </g>
</svg>
