<?xml version='1.0' encoding='utf-8'?>
<!-- Generator: Adobe Illustrator 24.2.3, SVG Export Plug-In . SVG Version: 6.00 Build 0)  -->
<svg xmlns="http://www.w3.org/2000/svg" gorn="0" id="Layer_1" height="1in" xml:space="preserve" width="1in" y="0px" enable-background="new 0 0 72 72" xmlns:xml="http://www.w3.org/XML/1998/namespace"  x="0px" viewBox="0 0 72 72" version="1.1">
    <desc>
        <referenceFile>Si7021 Humidity Rev C_schematic.svg</referenceFile>
    </desc>
    <desc >Fritzing schematic generated by brd2svg</desc>
    <g gorn="0.1" id="schematic" >
        <rect stroke-width="0.9" height="43.2" stroke-linejoin="round" width="42.75" y="14.4" stroke="#000000"  x="14.4" fill="none" stroke-linecap="round"/>
        <g transform="matrix(1 0 0 1 30.5356 33.2936)" >
            <text gorn="0.1.1.0" id="label" font-family="'DroidSans'"  font-size="2.8">Si7021</text>
        </g>
        <g transform="matrix(1 0 0 1 28.6298 36.9587)" >
            <text gorn="0.1.2.0" id="label_1_" font-family="'DroidSans'"  font-size="2.8">Humidity</text>
        </g>
        <g transform="matrix(1 0 0 1 29.3948 29.8074)" >
            <text gorn="0.1.3.0" id="label_2_" font-family="'DroidSans'"  font-size="2.8">Adafruit</text>
        </g>
        <line stroke-width="0.7" y2="28.8" stroke-linejoin="round" x1="0.35" stroke="#787878" y1="28.8" x2="14.4"  fill="none" stroke-linecap="round"/>
        <rect gorn="0.1.5" id="connector14pin" height="0.7" width="14.4" y="28.45"  fill="none"/>
        <rect gorn="0.1.6" id="connector14terminal" height="0.7" width="0" y="28.45"  fill="none"/>
        <g transform="matrix(1 0 0 1 15.8 29.5)" >
            <text gorn="0.1.7.0" id="label14" font-family="'DroidSans'"  font-size="2.8" fill="#8C8C8C">SCL</text>
        </g>
        <line stroke-width="0.7" y2="28.8" stroke-linejoin="round" x1="57.25" stroke="#787878" y1="28.8" x2="71.65"  fill="none" stroke-linecap="round"/>
        <rect gorn="0.1.9" id="connector13pin" height="0.7" width="14.4" y="28.45"  x="57.6" fill="none"/>
        <rect gorn="0.1.10" id="connector13terminal" height="0.7" width="0" y="28.45"  x="72" fill="none"/>
        <g transform="matrix(1 0 0 1 49.8956 29.5)" >
            <text gorn="0.1.11.0" id="label13" font-family="'DroidSans'"  font-size="2.8" fill="#8C8C8C">SDA</text>
        </g>
        <line stroke-width="0.7" y2="14.4" stroke-linejoin="round" x1="36" stroke="#787878" y1="0.35" x2="36"  fill="none" stroke-linecap="round"/>
        <rect gorn="0.1.13" id="connector12pin" height="14.4" width="0.7" y="0"  x="35.65" fill="none"/>
        <polygon gorn="0.1.14" id="connector12terminal" points="35.65,0 36.35,0 36.35,0 "  fill="none"/>
        <g transform="matrix(1, 0, 0, 1, 37.4, 16)" >
            <g >
                <g transform="rotate(270)" >
                    <g >
                        <g transform="matrix(1 0 0 1 -6.0681 0)" >
                            <text gorn="0.1.15.0.0.0.0.0" id="label12" font-family="'DroidSans'"  font-size="2.8" fill="#8C8C8C">VCC</text>
                        </g>
                    </g>
                </g>
            </g>
        </g>
        <line stroke-width="0.7" y2="14.4" stroke-linejoin="round" x1="43.2" stroke="#787878" y1="0.35" x2="43.2"  fill="none" stroke-linecap="round"/>
        <rect gorn="0.1.17" id="connector28pin" height="14.4" width="0.7" y="0"  x="42.85" fill="none"/>
        <polygon gorn="0.1.18" id="connector28terminal" points="42.85,0 43.55,0 43.55,0 "  fill="none"/>
        <g transform="matrix(1, 0, 0, 1, 44.6, 16)" >
            <g >
                <g transform="rotate(270)" >
                    <g >
                        <g transform="matrix(1 0 0 1 -6.781 0)" >
                            <text gorn="0.1.19.0.0.0.0.0" id="label28" font-family="'DroidSans'"  font-size="2.8" fill="#8C8C8C">3.3V</text>
                        </g>
                    </g>
                </g>
            </g>
        </g>
        <line stroke-width="0.7" y2="71.65" stroke-linejoin="round" x1="36" stroke="#787878" y1="57.6" x2="36"  fill="none" stroke-linecap="round"/>
        <rect gorn="0.1.21" id="connector11pin" height="14.4" width="0.7" y="57.6"  x="35.65" fill="none"/>
        <polygon gorn="0.1.22" id="connector11terminal" points="35.65,72 36.35,72 36.35,72 "  fill="none"/>
        <g transform="matrix(1, 0, 0, 1, 37.4, 56)" >
            <g >
                <g transform="rotate(270)" >
                    <g >
                        <g transform="matrix(1 0 0 1 -0.0008 0)" >
                            <text gorn="0.1.23.0.0.0.0.0" id="label11" font-family="'DroidSans'"  font-size="2.8" fill="#8C8C8C">GND</text>
                        </g>
                    </g>
                </g>
            </g>
        </g>
        <rect gorn="0.1.24" id="connector27pin" height="14.4" width="0.7" y="0"  x="35.65" fill="none"/>
        <polygon gorn="0.1.25" id="connector27terminal" points="35.65,0 36.35,0 36.35,0 "  fill="none"/>
        <rect gorn="0.1.26" id="connector18pin" height="14.4" width="0.7" y="0"  x="35.65" fill="none"/>
        <polygon gorn="0.1.27" id="connector18terminal" points="35.65,0 36.35,0 36.35,0 "  fill="none"/>
        <rect gorn="0.1.28" id="connector29pin" height="14.4" width="0.7" y="57.6"  x="35.65" fill="none"/>
        <polygon gorn="0.1.29" id="connector29terminal" points="35.65,72 36.35,72 36.35,72 "  fill="none"/>
        <rect gorn="0.1.30" id="connector17pin" height="14.4" width="0.7" y="57.6"  x="35.65" fill="none"/>
        <polygon gorn="0.1.31" id="connector17terminal" points="35.65,72 36.35,72 36.35,72 "  fill="none"/>
        <rect gorn="0.1.32" id="connector30pin" height="0.7" width="14.4" y="28.45"  fill="none"/>
        <rect gorn="0.1.33" id="connector30terminal" height="0.7" width="0" y="28.45"  fill="none"/>
        <rect gorn="0.1.34" id="connector20pin" height="0.7" width="14.4" y="28.45"  fill="none"/>
        <rect gorn="0.1.35" id="connector20terminal" height="0.7" width="0" y="28.45"  fill="none"/>
        <rect gorn="0.1.36" id="connector31pin" height="0.7" width="14.4" y="28.45"  x="57.6" fill="none"/>
        <rect gorn="0.1.37" id="connector31terminal" height="0.7" width="0" y="28.45"  x="72" fill="none"/>
        <rect gorn="0.1.38" id="connector19pin" height="0.7" width="14.4" y="28.45"  x="57.6" fill="none"/>
        <rect gorn="0.1.39" id="connector19terminal" height="0.7" width="0" y="28.45"  x="72" fill="none"/>
        <g transform="matrix(1 0 0 1 30.3592 40.8461)" >
            <text gorn="0.1.40.0" id="label_3_" font-family="'DroidSans'"  font-size="2.8">Sensor</text>
        </g>
    </g>
</svg>
